<svg xmlns="http://www.w3.org/2000/svg">
	<symbol id="social-telegram" viewBox="0 0 21 19">
		<path fill-rule="evenodd" clip-rule="evenodd" d="M1.43784 8.26325C7.07383 5.73103 10.8258 4.04844 12.7098 3.23213C18.0721 0.916484 19.1992 0.516659 19.9239 0.5C20.0849 0.5 20.4392 0.533319 20.6807 0.733231C20.8739 0.899824 20.9222 1.1164 20.9545 1.28299C20.9867 1.44958 21.0189 1.79943 20.9867 2.06598C20.6968 5.23125 19.4408 12.9112 18.7967 16.443C18.5229 17.9423 17.9915 18.4421 17.4762 18.4921C16.349 18.592 15.4956 17.7258 14.4167 16.9927C12.7098 15.8433 11.7597 15.1269 10.1012 13.9941C8.18492 12.6946 9.42484 11.9783 10.5198 10.8121C10.8097 10.5123 15.7532 5.84765 15.8499 5.43117C15.866 5.38119 15.866 5.18127 15.7532 5.08132C15.6405 4.98136 15.4795 5.01468 15.3507 5.048C15.1735 5.08132 12.4683 6.94716 7.20265 10.6289C6.42972 11.1786 5.73729 11.4452 5.10928 11.4285C4.41686 11.4119 3.09643 11.0287 2.09806 10.6955C0.890347 10.2957 -0.0758222 10.0791 0.0046919 9.37943C0.0530003 9.01292 0.536085 8.64642 1.43784 8.26325Z"/>
	</symbol>

		<symbol id="social-vk" viewBox="0 0 26 15">
			<path d="M24.4954 14.4989H21.7581C20.7229 14.4989 20.411 13.7085 18.5553 11.9581C16.9336 10.4848 16.2486 10.3016 15.8384 10.3016C15.271 10.3016 15.1163 10.4486 15.1163 11.1847V13.505C15.1163 14.1325 14.9004 14.5 13.1611 14.5C11.4737 14.3931 9.83734 13.9099 8.38688 13.0902C6.93642 12.2704 5.71331 11.1375 4.81831 9.78488C2.69396 7.29122 1.21541 4.36515 0.5 1.23888C0.5 0.852173 0.655939 0.501649 1.43803 0.501649H4.17296C4.87589 0.501649 5.12899 0.796768 5.40488 1.47859C6.73276 5.16249 8.99868 8.36696 9.91872 8.36696C10.2714 8.36696 10.4249 8.21996 10.4249 7.39114V3.59644C10.3086 1.8653 9.33335 1.71944 9.33335 1.09302C9.34568 0.927752 9.42588 0.77353 9.55691 0.663108C9.68794 0.552687 9.85947 0.494766 10.0351 0.501649H14.3342C14.922 0.501649 15.1163 0.777545 15.1163 1.44015V6.56232C15.1163 7.11525 15.3682 7.29842 15.5457 7.29842C15.8984 7.29842 16.1695 7.11525 16.816 6.50692C18.2013 4.91334 19.3335 3.13839 20.1771 1.23775C20.2631 1.0093 20.4261 0.813719 20.6412 0.680969C20.8564 0.548219 21.1118 0.485625 21.3682 0.50278H24.1044C24.9249 0.50278 25.0988 0.889487 24.9249 1.44128C23.9294 3.5425 22.6981 5.53717 21.2519 7.39114C20.9568 7.81517 20.8393 8.03566 21.2519 8.53317C21.523 8.91988 22.4826 9.6752 23.1268 10.3932C24.0648 11.2752 24.8433 12.2951 25.4323 13.4122C25.6674 14.1314 25.2763 14.4989 24.4954 14.4989Z"/>
	</symbol>
	
	<symbol id="privilege-graph" viewBox="0 0 49 50" fill="none">
		<path d="M17.5 5.75C17.5 2.85156 19.8516 0.5 22.75 0.5H26.25C29.1484 0.5 31.5 2.85156 31.5 5.75V44.25C31.5 47.1484 29.1484 49.5 26.25 49.5H22.75C19.8516 49.5 17.5 47.1484 17.5 44.25V5.75ZM0 26.75C0 23.8516 2.35156 21.5 5.25 21.5H8.75C11.6484 21.5 14 23.8516 14 26.75V44.25C14 47.1484 11.6484 49.5 8.75 49.5H5.25C2.35156 49.5 0 47.1484 0 44.25V26.75ZM40.25 7.5H43.75C46.6484 7.5 49 9.85156 49 12.75V44.25C49 47.1484 46.6484 49.5 43.75 49.5H40.25C37.3516 49.5 35 47.1484 35 44.25V12.75C35 9.85156 37.3516 7.5 40.25 7.5Z" fill="url(#paint0_linear_3_344)"/>
		<defs>
			<linearGradient id="paint0_linear_3_344" x1="21.7587" y1="49.5" x2="52.5933" y2="33.5116" gradientUnits="userSpaceOnUse">
				<stop stop-color="#FBC81F"/>
				<stop offset="0.885" stop-color="#FFAF2E"/>
			</linearGradient>
		</defs>
	</symbol>

	<symbol id="privilege-present" viewBox="0 0 48 48" fill="none">
		<path d="M17.8594 6.45L21.1219 12H21H14.25C12.1781 12 10.5 10.3219 10.5 8.25C10.5 6.17812 12.1781 4.5 14.25 4.5H14.4562C15.8531 4.5 17.1562 5.24063 17.8594 6.45ZM6 8.25C6 9.6 6.32812 10.875 6.9 12H3C1.34062 12 0 13.3406 0 15V21C0 22.6594 1.34062 24 3 24H45C46.6594 24 48 22.6594 48 21V15C48 13.3406 46.6594 12 45 12H41.1C41.6719 10.875 42 9.6 42 8.25C42 3.69375 38.3063 0 33.75 0H33.5437C30.5531 0 27.7781 1.58438 26.2594 4.1625L24 8.01562L21.7406 4.17188C20.2219 1.58437 17.4469 0 14.4562 0H14.25C9.69375 0 6 3.69375 6 8.25ZM37.5 8.25C37.5 10.3219 35.8219 12 33.75 12H27H26.8781L30.1406 6.45C30.8531 5.24063 32.1469 4.5 33.5437 4.5H33.75C35.8219 4.5 37.5 6.17812 37.5 8.25ZM3 27V43.5C3 45.9844 5.01562 48 7.5 48H21V27H3ZM27 48H40.5C42.9844 48 45 45.9844 45 43.5V27H27V48Z" fill="url(#paint0_linear_3_350)"/>
		<defs>
			<linearGradient id="paint0_linear_3_350" x1="21.3147" y1="48" x2="51.52" y2="32.3379" gradientUnits="userSpaceOnUse">
				<stop stop-color="#FBC81F"/>
				<stop offset="0.885" stop-color="#FFAF2E"/>
			</linearGradient>
		</defs>
	</symbol>
		
	<symbol id="privilege-dice" viewBox="0 0 60 49" fill="none">
		<path d="M25.2007 2.34961C22.5224 -0.394531 18.1761 -0.394531 15.4979 2.34961L2.26848 15.9043C-0.409805 18.6484 -0.409805 23.1016 2.26848 25.8457L15.4979 39.4004C18.1761 42.1445 22.5224 42.1445 25.2007 39.4004L38.43 25.8457C41.1083 23.1016 41.1083 18.6484 38.43 15.9043L25.2007 2.34961ZM18.0618 20.875C18.0618 20.2534 18.3028 19.6573 18.7317 19.2177C19.1607 18.7782 19.7426 18.5312 20.3493 18.5312C20.9559 18.5312 21.5378 18.7782 21.9668 19.2177C22.3958 19.6573 22.6368 20.2534 22.6368 20.875C22.6368 21.4966 22.3958 22.0927 21.9668 22.5323C21.5378 22.9718 20.9559 23.2188 20.3493 23.2188C19.7426 23.2188 19.1607 22.9718 18.7317 22.5323C18.3028 22.0927 18.0618 21.4966 18.0618 20.875ZM8.14926 18.5312C8.75594 18.5312 9.33777 18.7782 9.76676 19.2177C10.1958 19.6573 10.4368 20.2534 10.4368 20.875C10.4368 21.4966 10.1958 22.0927 9.76676 22.5323C9.33777 22.9718 8.75594 23.2188 8.14926 23.2188C7.54257 23.2188 6.96074 22.9718 6.53175 22.5323C6.10276 22.0927 5.86176 21.4966 5.86176 20.875C5.86176 20.2534 6.10276 19.6573 6.53175 19.2177C6.96074 18.7782 7.54257 18.5312 8.14926 18.5312ZM20.3493 35.7188C19.7426 35.7188 19.1607 35.4718 18.7317 35.0323C18.3028 34.5927 18.0618 33.9966 18.0618 33.375C18.0618 32.7534 18.3028 32.1573 18.7317 31.7177C19.1607 31.2782 19.7426 31.0312 20.3493 31.0312C20.9559 31.0312 21.5378 31.2782 21.9668 31.7177C22.3958 32.1573 22.6368 32.7534 22.6368 33.375C22.6368 33.9966 22.3958 34.5927 21.9668 35.0323C21.5378 35.4718 20.9559 35.7188 20.3493 35.7188ZM32.5493 18.5312C33.1559 18.5312 33.7378 18.7782 34.1668 19.2177C34.5957 19.6573 34.8368 20.2534 34.8368 20.875C34.8368 21.4966 34.5957 22.0927 34.1668 22.5323C33.7378 22.9718 33.1559 23.2188 32.5493 23.2188C31.9426 23.2188 31.3607 22.9718 30.9317 22.5323C30.5028 22.0927 30.2618 21.4966 30.2618 20.875C30.2618 20.2534 30.5028 19.6573 30.9317 19.2177C31.3607 18.7782 31.9426 18.5312 32.5493 18.5312ZM20.3493 10.7188C19.7426 10.7188 19.1607 10.4718 18.7317 10.0323C18.3028 9.59274 18.0618 8.9966 18.0618 8.375C18.0618 7.7534 18.3028 7.15726 18.7317 6.71772C19.1607 6.27818 19.7426 6.03125 20.3493 6.03125C20.9559 6.03125 21.5378 6.27818 21.9668 6.71772C22.3958 7.15726 22.6368 7.7534 22.6368 8.375C22.6368 8.9966 22.3958 9.59274 21.9668 10.0323C21.5378 10.4718 20.9559 10.7188 20.3493 10.7188ZM29.4993 42.75C29.4993 46.1973 32.2347 49 35.5993 49H53.8993C57.2638 49 59.9993 46.1973 59.9993 42.75V24C59.9993 20.5527 57.2638 17.75 53.8993 17.75H43.005C44.1107 21.2656 43.3005 25.2695 40.5841 28.0527L29.4993 39.4102V42.75ZM44.7493 31.0312C45.3559 31.0312 45.9378 31.2782 46.3668 31.7177C46.7957 32.1573 47.0368 32.7534 47.0368 33.375C47.0368 33.9966 46.7957 34.5927 46.3668 35.0323C45.9378 35.4718 45.3559 35.7188 44.7493 35.7188C44.1426 35.7188 43.5607 35.4718 43.1317 35.0323C42.7028 34.5927 42.4618 33.9966 42.4618 33.375C42.4618 32.7534 42.7028 32.1573 43.1317 31.7177C43.5607 31.2782 44.1426 31.0312 44.7493 31.0312Z" fill="url(#paint0_linear_3_355)"/>
		<defs>
			<linearGradient id="paint0_linear_3_355" x1="26.7874" y1="49" x2="60.7513" y2="27.4006" gradientUnits="userSpaceOnUse">
				<stop stop-color="#FBC81F"/>
				<stop offset="0.885" stop-color="#FFAF2E"/>
		</linearGradient>
		</defs>
	</symbol>

	<symbol id="privilege-car" viewBox="0 0 56 45" fill="none">
		<path d="M9.8 0C7.48125 0 5.6 1.88965 5.6 4.21875V8.4375H1.4C0.63 8.4375 0 9.07031 0 9.84375C0 10.6172 0.63 11.25 1.4 11.25H5.6H23.8C24.57 11.25 25.2 11.8828 25.2 12.6562C25.2 13.4297 24.57 14.0625 23.8 14.0625H5.6H4.2C3.43 14.0625 2.8 14.6953 2.8 15.4688C2.8 16.2422 3.43 16.875 4.2 16.875H5.6H21C21.77 16.875 22.4 17.5078 22.4 18.2812C22.4 19.0547 21.77 19.6875 21 19.6875H5.6H1.4C0.63 19.6875 0 20.3203 0 21.0938C0 21.8672 0.63 22.5 1.4 22.5H5.6H18.2C18.97 22.5 19.6 23.1328 19.6 23.9062C19.6 24.6797 18.97 25.3125 18.2 25.3125H5.6V36.5625C5.6 41.2207 9.3625 45 14 45C18.6375 45 22.4 41.2207 22.4 36.5625H33.6C33.6 41.2207 37.3625 45 42 45C46.6375 45 50.4 41.2207 50.4 36.5625H53.2C54.7487 36.5625 56 35.3057 56 33.75C56 32.1943 54.7487 30.9375 53.2 30.9375V25.3125V22.5V20.8564C53.2 19.3623 52.6137 17.9297 51.5637 16.875L44.8 10.0811C43.75 9.02637 42.3237 8.4375 40.8363 8.4375H36.4V4.21875C36.4 1.88965 34.5187 0 32.2 0H9.8ZM47.6 20.8564V22.5H36.4V14.0625H40.8363L47.6 20.8564ZM14 32.3438C15.1139 32.3438 16.1822 32.7882 16.9698 33.5794C17.7575 34.3706 18.2 35.4436 18.2 36.5625C18.2 37.6814 17.7575 38.7544 16.9698 39.5456C16.1822 40.3368 15.1139 40.7812 14 40.7812C12.8861 40.7812 11.8178 40.3368 11.0302 39.5456C10.2425 38.7544 9.8 37.6814 9.8 36.5625C9.8 35.4436 10.2425 34.3706 11.0302 33.5794C11.8178 32.7882 12.8861 32.3438 14 32.3438ZM37.8 36.5625C37.8 35.4436 38.2425 34.3706 39.0302 33.5794C39.8178 32.7882 40.8861 32.3438 42 32.3438C43.1139 32.3438 44.1822 32.7882 44.9698 33.5794C45.7575 34.3706 46.2 35.4436 46.2 36.5625C46.2 37.6814 45.7575 38.7544 44.9698 39.5456C44.1822 40.3368 43.1139 40.7812 42 40.7812C40.8861 40.7812 39.8178 40.3368 39.0302 39.5456C38.2425 38.7544 37.8 37.6814 37.8 36.5625Z" fill="url(#paint0_linear_3_360)"/>
		<defs>
			<linearGradient id="paint0_linear_3_360" x1="24.8671" y1="45" x2="56.4366" y2="24.6291" gradientUnits="userSpaceOnUse">
				<stop stop-color="#FBC81F"/>
				<stop offset="0.885" stop-color="#FFAF2E"/>
			</linearGradient>
		</defs>
	</symbol>

	<symbol id="privilege-coins" viewBox="0 0 50 50" fill="none">
		<path d="M50 7.8125C50 9.57031 48.6035 11.1914 46.25 12.5C43.4082 14.0723 39.1699 15.1855 34.3066 15.5176C33.9453 15.3418 33.584 15.1758 33.2031 15.0293C29.3555 13.418 24.2383 12.5 18.75 12.5C17.9395 12.5 17.1484 12.5195 16.3574 12.5586L16.25 12.5C13.8965 11.1914 12.5 9.57031 12.5 7.8125C12.5 3.49609 20.8984 0 31.25 0C41.6016 0 50 3.49609 50 7.8125ZM15.6934 15.7324C16.6895 15.6641 17.7148 15.625 18.75 15.625C24.8242 15.625 30.2148 16.8262 33.6426 18.6914C36.0645 20.0098 37.5 21.6504 37.5 23.4375C37.5 23.8281 37.4316 24.209 37.2949 24.5801C36.8457 25.8691 35.6348 27.0508 33.877 28.0469C33.8672 28.0566 33.8477 28.0566 33.8379 28.0664C33.8086 28.0859 33.7793 28.0957 33.75 28.1152C30.332 30.0098 24.8828 31.2402 18.75 31.2402C12.9297 31.2402 7.72461 30.1367 4.27734 28.3984C4.0918 28.3105 3.91602 28.2129 3.74023 28.1152C1.39648 26.8164 0 25.1953 0 23.4375C0 20.0391 5.21484 17.1387 12.5 16.0742C13.5254 15.9277 14.5898 15.8105 15.6934 15.7324ZM40.625 23.4375C40.625 21.2988 39.5898 19.541 38.2715 18.2227C41.0352 17.793 43.5645 17.1094 45.7129 16.2207C47.3047 15.5566 48.7891 14.7363 50 13.7305V17.1875C50 19.0723 48.3887 20.8105 45.7227 22.1582C44.2969 22.8809 42.5586 23.4961 40.6055 23.9648C40.6152 23.7891 40.625 23.623 40.625 23.4473V23.4375ZM37.5 32.8125C37.5 34.5703 36.1035 36.1914 33.75 37.5C33.5742 37.5977 33.3984 37.6855 33.2129 37.7832C29.7754 39.5215 24.5703 40.625 18.75 40.625C12.6172 40.625 7.16797 39.3945 3.75 37.5C1.39648 36.1914 0 34.5703 0 32.8125V29.3555C1.2207 30.3613 2.69531 31.1816 4.28711 31.8457C8.14453 33.457 13.2617 34.375 18.75 34.375C24.2383 34.375 29.3555 33.457 33.2129 31.8457C33.9746 31.5332 34.707 31.1719 35.4004 30.7813C35.9961 30.4492 36.5527 30.0781 37.0801 29.6875C37.2266 29.5801 37.3633 29.4629 37.5 29.3555V29.6875V30.2441V32.8125ZM40.625 32.8125V29.6875V27.1582C42.4805 26.748 44.1895 26.2305 45.7129 25.5957C47.3047 24.9316 48.7891 24.1113 50 23.1055V26.5625C50 27.5879 49.5117 28.6133 48.5449 29.5801C46.9531 31.1719 44.1504 32.4805 40.6055 33.3301C40.6152 33.1641 40.625 32.9883 40.625 32.8125ZM18.75 43.75C24.2383 43.75 29.3555 42.832 33.2129 41.2207C34.8047 40.5566 36.2891 39.7363 37.5 38.7305V42.1875C37.5 46.5039 29.1016 50 18.75 50C8.39844 50 0 46.5039 0 42.1875V38.7305C1.2207 39.7363 2.69531 40.5566 4.28711 41.2207C8.14453 42.832 13.2617 43.75 18.75 43.75Z" fill="url(#paint0_linear_3_339)"/>
		<defs>
			<linearGradient id="paint0_linear_3_339" x1="22.2028" y1="50" x2="53.6666" y2="33.6853" gradientUnits="userSpaceOnUse">
				<stop stop-color="#FBC81F"/>
				<stop offset="0.885" stop-color="#FFAF2E"/>
			</linearGradient>
		</defs>
	</symbol>

	<symbol id="advantage-painting" viewBox="0 0 45 40" fill="none">
		<path d="M0 5.71429C0 2.5625 2.52246 0 5.625 0H39.375C42.4775 0 45 2.5625 45 5.71429V34.2857C45 37.4375 42.4775 40 39.375 40H5.625C2.52246 40 0 37.4375 0 34.2857V5.71429ZM28.459 15.2232C28.0635 14.6339 27.4131 14.2857 26.7188 14.2857C26.0244 14.2857 25.3652 14.6339 24.9785 15.2232L17.332 26.6161L15.0029 23.6607C14.5986 23.1518 13.9922 22.8571 13.3594 22.8571C12.7266 22.8571 12.1113 23.1518 11.7158 23.6607L6.09082 30.8036C5.58106 31.4464 5.48438 32.3304 5.83594 33.0714C6.1875 33.8125 6.92578 34.2857 7.73438 34.2857H16.1719H18.9844H37.2656C38.0479 34.2857 38.7686 33.8482 39.1289 33.1429C39.4893 32.4375 39.4453 31.5893 39.0059 30.9375L28.459 15.2232ZM9.84375 14.2857C10.9626 14.2857 12.0357 13.8342 12.8269 13.0305C13.618 12.2267 14.0625 11.1366 14.0625 10C14.0625 8.86336 13.618 7.77327 12.8269 6.96954C12.0357 6.16582 10.9626 5.71429 9.84375 5.71429C8.72487 5.71429 7.65181 6.16582 6.86064 6.96954C6.06947 7.77327 5.625 8.86336 5.625 10C5.625 11.1366 6.06947 12.2267 6.86064 13.0305C7.65181 13.8342 8.72487 14.2857 9.84375 14.2857Z" fill="url(#paint0_linear_3_430)"/>
		<defs>
			<linearGradient id="paint0_linear_3_430" x1="19.9825" y1="40" x2="46.7911" y2="24.3616" gradientUnits="userSpaceOnUse">
				<stop stop-color="#FBC81F"/>
		 		<stop offset="0.885" stop-color="#FFAF2E"/>
			</linearGradient>
		</defs>
	</symbol>

	<symbol id="advantage-document" viewBox="0 0 38 47" fill="none">
		<path d="M0 5.875C0 2.63457 2.8401 0 6.33333 0H22.1667V11.75C22.1667 13.3748 23.5818 14.6875 25.3333 14.6875H38V41.125C38 44.3654 35.1599 47 31.6667 47H6.33333C2.8401 47 0 44.3654 0 41.125V5.875ZM38 11.75H25.3333V0L38 11.75Z" fill="url(#paint0_linear_3_436)"/>
		<defs>
		<linearGradient id="paint0_linear_3_436" x1="16.8741" y1="47" x2="42.6803" y2="36.1812" gradientUnits="userSpaceOnUse">
				<stop stop-color="#FBC81F"/>
				<stop offset="0.885" stop-color="#FFAF2E"/>
		</linearGradient>
		</defs>
	</symbol>

	<symbol id="advantage-card" viewBox="0 0 50 40" fill="none">
		<path d="M5.55556 0.75C2.49132 0.75 0 3.21641 0 6.25V9H50V6.25C50 3.21641 47.5087 0.75 44.4444 0.75H5.55556ZM50 17.25H0V33.75C0 36.7836 2.49132 39.25 5.55556 39.25H44.4444C47.5087 39.25 50 36.7836 50 33.75V17.25ZM9.72222 28.25H15.2778C16.0417 28.25 16.6667 28.8687 16.6667 29.625C16.6667 30.3813 16.0417 31 15.2778 31H9.72222C8.95833 31 8.33333 30.3813 8.33333 29.625C8.33333 28.8687 8.95833 28.25 9.72222 28.25ZM19.4444 29.625C19.4444 28.8687 20.0694 28.25 20.8333 28.25H31.9444C32.7083 28.25 33.3333 28.8687 33.3333 29.625C33.3333 30.3813 32.7083 31 31.9444 31H20.8333C20.0694 31 19.4444 30.3813 19.4444 29.625Z" fill="url(#paint0_linear_3_433)"/>
		<defs>
			<linearGradient id="paint0_linear_3_433" x1="22.2028" y1="39.25" x2="49.6703" y2="20.7532" gradientUnits="userSpaceOnUse">
				<stop stop-color="#FBC81F"/>
				<stop offset="0.885" stop-color="#FFAF2E"/>
			</linearGradient>
		</defs>
	</symbol>

	<symbol id="advantage-chat" viewBox="0 0 56 44" fill="none">
		<path d="M36.4 15.125C36.4 23.4781 28.2538 30.25 18.2 30.25C14.8575 30.25 11.7338 29.5023 9.03875 28.1961C8.3825 28.5398 7.63875 28.875 6.83375 29.1758C5.2325 29.7687 3.3075 30.25 1.4 30.25C0.79625 30.25 0.25375 29.8633 0.07 29.2961C-0.11375 28.7289 0.0875 28.1102 0.5775 27.7578L0.595 27.7406C0.6125 27.7234 0.6475 27.7062 0.69125 27.6719C0.77875 27.6031 0.91 27.5 1.0675 27.3539C1.3825 27.0703 1.81125 26.6578 2.23125 26.125C2.7125 25.5234 3.1675 24.8016 3.47375 24.0023C1.28625 21.5102 0 18.4422 0 15.125C0 6.77188 8.14625 0 18.2 0C28.2538 0 36.4 6.77188 36.4 15.125ZM20.2563 32.9141C30.5288 32.0461 39.2 24.7758 39.2 15.125C39.2 14.6781 39.1825 14.2312 39.1475 13.793C48.5713 14.3602 56 20.9 56 28.875C56 32.1922 54.7138 35.2602 52.535 37.7609C52.8413 38.5687 53.2963 39.282 53.7775 39.8836C54.1975 40.4164 54.6263 40.8289 54.9413 41.1125C55.0988 41.25 55.23 41.3617 55.3175 41.4305C55.3613 41.4648 55.3963 41.4906 55.4138 41.4992L55.4313 41.5164C55.9213 41.8688 56.1225 42.4875 55.9388 43.0547C55.755 43.6219 55.2125 44.0086 54.6088 44.0086C52.7013 44.0086 50.7763 43.5273 49.175 42.9344C48.37 42.6336 47.6175 42.2984 46.97 41.9547C44.2663 43.2523 41.1425 44 37.8 44C29.435 44 22.3825 39.3078 20.2563 32.9141ZM19.95 6.1875C19.95 5.24219 19.1625 4.46875 18.2 4.46875C17.2375 4.46875 16.45 5.24219 16.45 6.1875V7.39062C15.785 7.53672 15.12 7.76875 14.5075 8.12109C13.2913 8.83438 12.2413 10.0805 12.25 11.8937C12.2588 13.6383 13.3 14.7383 14.4113 15.3914C15.3738 15.9586 16.5725 16.3195 17.5263 16.5945L17.675 16.6375C18.7775 16.9641 19.5825 17.2219 20.125 17.557C20.5713 17.832 20.6325 18.0211 20.6413 18.2617C20.65 18.6914 20.4838 18.9492 20.125 19.1641C19.6875 19.4305 18.9963 19.5938 18.2525 19.568C17.2813 19.5336 16.3713 19.2328 15.1813 18.8375C14.98 18.7687 14.77 18.7 14.5513 18.6313C13.6325 18.3305 12.6438 18.8203 12.3375 19.7141C12.0313 20.6078 12.53 21.5875 13.44 21.8883C13.6063 21.9398 13.79 22 13.9738 22.0687C14.7 22.318 15.54 22.6016 16.4412 22.7906V24.0453C16.4412 24.9906 17.2288 25.7641 18.1912 25.7641C19.1538 25.7641 19.9413 24.9906 19.9413 24.0453V22.8594C20.6413 22.7133 21.3413 22.4727 21.9713 22.0859C23.2225 21.3211 24.1675 20.0148 24.1413 18.2188C24.115 16.4742 23.1175 15.3484 21.9888 14.6437C20.9825 14.025 19.7225 13.6469 18.7425 13.3547L18.6813 13.3375C17.5613 13.0023 16.765 12.7617 16.205 12.4352C15.75 12.1687 15.7413 12.0141 15.7413 11.8594C15.7413 11.5414 15.8638 11.3008 16.2838 11.0602C16.7563 10.7852 17.4738 10.6219 18.165 10.6305C19.005 10.6391 19.9325 10.8195 20.895 11.0773C21.8313 11.318 22.785 10.7766 23.0387 9.85703C23.2925 8.9375 22.7325 8.00078 21.7963 7.75156C21.2275 7.60547 20.5975 7.45937 19.95 7.34766V6.1875Z" fill="url(#paint0_linear_3_439)"/>
		<defs>
			<linearGradient id="paint0_linear_3_439" x1="24.8698" y1="44.0086" x2="56.0232" y2="23.4511" gradientUnits="userSpaceOnUse">
				<stop stop-color="#FBC81F"/>
				<stop offset="0.885" stop-color="#FFAF2E"/>
			</linearGradient>
		</defs>
	</symbol>
</svg> 